<svg width="512" height="512" viewBox="0 0 512 512" fill="none" xmlns="http://www.w3.org/2000/svg">
  <defs>
    <linearGradient id="silverEarV2" x1="100" y1="80" x2="412" y2="432" gradientUnits="userSpaceOnUse">
      <stop offset="0%" stop-color="#F8FAFC"/>
      <stop offset="40%" stop-color="#E2E8F0"/>
      <stop offset="70%" stop-color="#94A3B8"/>
      <stop offset="100%" stop-color="#475569"/>
    </linearGradient>
    <linearGradient id="diamondEarV2" x1="0" y1="0" x2="1" y2="1">
      <stop offset="0%" stop-color="#FFFFFF"/>
      <stop offset="30%" stop-color="#E0F2FE"/>
      <stop offset="70%" stop-color="#7DD3FC"/>
      <stop offset="100%" stop-color="#0284C7"/>
    </linearGradient>
    <filter id="glowEarV2" x="-25%" y="-25%" width="150%" height="150%">
      <feGaussianBlur stdDeviation="10" result="blur"/>
      <feComposite in="SourceGraphic" in2="blur" operator="over"/>
    </filter>
  </defs>
  
  <!-- Left Hoop Earring -->
  <g transform="translate(-60, 0)">
    <!-- Main hoop -->
    <g filter="url(#glowEarV2)">
      <circle cx="180" cy="256" r="120" stroke="url(#silverEarV2)" stroke-width="20" fill="none"/>
      <circle cx="180" cy="256" r="120" stroke="white" stroke-width="3" stroke-dasharray="10 20" fill="none" opacity="0.5"/>
    </g>
    
    <!-- Clasp -->
    <circle cx="180" cy="136" r="14" fill="url(#silverEarV2)"/>
    <circle cx="180" cy="136" r="8" fill="white" fill-opacity="0.5"/>
    
    <!-- Diamond accents on hoop -->
    <path d="M80 256L72 244L64 256L72 268Z" fill="url(#diamondEarV2)" filter="url(#glowEarV2)"/>
    <path d="M280 256L288 244L296 256L288 268Z" fill="url(#diamondEarV2)" filter="url(#glowEarV2)"/>
    <path d="M180 376L168 368L180 360L192 368Z" fill="url(#diamondEarV2)" filter="url(#glowEarV2)"/>
  </g>
  
  <!-- Right Hoop Earring -->
  <g transform="translate(60, 0)">
    <!-- Main hoop -->
    <g filter="url(#glowEarV2)">
      <circle cx="332" cy="256" r="120" stroke="url(#silverEarV2)" stroke-width="20" fill="none"/>
      <circle cx="332" cy="256" r="120" stroke="white" stroke-width="3" stroke-dasharray="10 20" fill="none" opacity="0.5"/>
    </g>
    
    <!-- Clasp -->
    <circle cx="332" cy="136" r="14" fill="url(#silverEarV2)"/>
    <circle cx="332" cy="136" r="8" fill="white" fill-opacity="0.5"/>
    
    <!-- Diamond accents on hoop -->
    <path d="M232 256L224 244L216 256L224 268Z" fill="url(#diamondEarV2)" filter="url(#glowEarV2)"/>
    <path d="M432 256L440 244L448 256L440 268Z" fill="url(#diamondEarV2)" filter="url(#glowEarV2)"/>
    <path d="M332 376L320 368L332 360L344 368Z" fill="url(#diamondEarV2)" filter="url(#glowEarV2)"/>
  </g>
  
  <!-- Center sparkles -->
  <path d="M256 80L262 64L278 58L262 52L256 36L250 52L234 58L250 64L256 80Z" fill="white"/>
  <path d="M256 476L262 460L278 454L262 448L256 432L250 448L234 454L250 460L256 476Z" fill="#E2E8F0" opacity="0.7"/>
</svg>
