<svg width="640" height="640" viewBox="0 0 640 640" fill="none" xmlns="http://www.w3.org/2000/svg">
  <defs>
    <linearGradient id="loveXGradientUHD" x1="320" y1="40" x2="320" y2="600" gradientUnits="userSpaceOnUse">
      <stop offset="0%" stop-color="#F472B6"/>
      <stop offset="50%" stop-color="#E11D48"/>
      <stop offset="100%" stop-color="#9F1239"/>
    </linearGradient>
    <filter id="glowXLoveUHD" x="-20%" y="-20%" width="140%" height="140%">
      <feGaussianBlur stdDeviation="24" result="blur"/>
      <feComposite in="SourceGraphic" in2="blur" operator="over"/>
    </filter>
    <linearGradient id="strokeGrad" x1="0" y1="0" x2="640" y2="640" gradientUnits="userSpaceOnUse">
      <stop offset="0%" stop-color="#FBCFE8"/>
      <stop offset="100%" stop-color="#BE123C"/>
    </linearGradient>
  </defs>
  
  <!-- Main X Shape (Stylized Hearts) -->
  <g filter="url(#glowXLoveUHD)">
    <!-- Top Left to Bottom Right -->
    <path d="M120 120C80 80 80 40 120 40C160 40 160 80 160 80L480 560C480 560 520 600 560 600C600 600 600 560 560 520L120 120Z" 
          fill="url(#loveXGradientUHD)"/>
    
    <!-- Top Right to Bottom Left -->
    <path d="M520 120C560 80 560 40 520 40C480 40 480 80 480 80L160 560C160 560 120 600 80 600C40 600 40 560 80 520L520 120Z" 
          fill="url(#loveXGradientUHD)"/>
  </g>
  
  <!-- Stroke Detail -->
  <path d="M120 120L480 560" stroke="url(#strokeGrad)" stroke-width="8" stroke-linecap="round" opacity="0.6"/>
  <path d="M520 120L160 560" stroke="url(#strokeGrad)" stroke-width="8" stroke-linecap="round" opacity="0.6"/>
  
  <!-- Center Heart -->
  <path d="M320 380C320 380 380 340 380 290C380 260 360 240 340 240C330 240 320 250 320 250C320 250 310 240 300 240C280 240 260 260 260 290C260 340 320 380 320 380Z" 
        fill="#FCE7F3" filter="url(#glowXLoveUHD)"/>
</svg>
