<svg width="56" height="56" viewBox="0 0 56 56" fill="none" xmlns="http://www.w3.org/2000/svg">
  <!-- Variant B: Gradient Glossy -->
  <defs>
    <linearGradient id="grad1" x1="28" y1="0" x2="28" y2="56" gradientUnits="userSpaceOnUse">
      <stop offset="0%" stop-color="#FFF7ED"/>
      <stop offset="100%" stop-color="#FEF3C7"/>
    </linearGradient>
    <linearGradient id="grad2" x1="28" y1="10" x2="28" y2="45" gradientUnits="userSpaceOnUse">
      <stop offset="0%" stop-color="#FCD34D"/>
      <stop offset="100%" stop-color="#D97706"/>
    </linearGradient>
    <filter id="glow" x="-10" y="-10" width="76" height="76">
      <feGaussianBlur stdDeviation="4" result="coloredBlur"/>
      <feMerge>
        <feMergeNode in="coloredBlur"/>
        <feMergeNode in="SourceGraphic"/>
      </feMerge>
    </filter>
  </defs>
  <circle cx="28" cy="28" r="28" fill="url(#grad1)"/>
  <path d="M28 10L33.5 21.5L46 23.5L37 32.5L39 45L28 39L17 45L19 32.5L10 23.5L22.5 21.5L28 10Z" fill="url(#grad2)" filter="url(#glow)"/>
  <path d="M28 12L32 22L42 24L35 31L36.5 41L28 36L19.5 41L21 31L14 24L24 22L28 12Z" fill="white" fill-opacity="0.3"/>
</svg>
