<svg width="448" height="448" viewBox="0 0 448 448" fill="none" xmlns="http://www.w3.org/2000/svg">
  <defs>
    <linearGradient id="starGradientUHD" x1="224" y1="40" x2="224" y2="408" gradientUnits="userSpaceOnUse">
      <stop offset="0%" stop-color="#FCD34D"/>
      <stop offset="50%" stop-color="#F59E0B"/>
      <stop offset="100%" stop-color="#B45309"/>
    </linearGradient>
    <linearGradient id="goldShine" x1="0" y1="0" x2="448" y2="448" gradientUnits="userSpaceOnUse">
      <stop offset="0%" stop-color="white" stop-opacity="0.8"/>
      <stop offset="40%" stop-color="white" stop-opacity="0"/>
      <stop offset="60%" stop-color="white" stop-opacity="0"/>
      <stop offset="100%" stop-color="white" stop-opacity="0.6"/>
    </linearGradient>
    <filter id="starGlowUHD" x="-20%" y="-20%" width="140%" height="140%">
      <feGaussianBlur stdDeviation="16" result="blur"/>
      <feComposite in="SourceGraphic" in2="blur" operator="over"/>
    </filter>
  </defs>
  
  <!-- Main Star Shape -->
  <g filter="url(#starGlowUHD)">
    <path d="M224 40L278 148L396 166L310 250L330 368L224 312L118 368L138 250L52 166L170 148L224 40Z" 
          fill="url(#starGradientUHD)"/>
  </g>
  
  <!-- Faceted Look (3D effect) -->
  <path d="M224 40L224 224L278 148L224 40Z" fill="#FEF3C7" fill-opacity="0.4"/>
  <path d="M278 148L224 224L396 166L278 148Z" fill="#D97706" fill-opacity="0.2"/>
  <path d="M396 166L224 224L310 250L396 166Z" fill="#FEF3C7" fill-opacity="0.3"/>
  <path d="M310 250L224 224L330 368L310 250Z" fill="#D97706" fill-opacity="0.4"/>
  <path d="M330 368L224 224L224 312L330 368Z" fill="#78350F" fill-opacity="0.3"/>
  
  <path d="M224 312L224 224L118 368L224 312Z" fill="#D97706" fill-opacity="0.4"/>
  <path d="M118 368L224 224L138 250L118 368Z" fill="#78350F" fill-opacity="0.3"/>
  <path d="M138 250L224 224L52 166L138 250Z" fill="#FEF3C7" fill-opacity="0.3"/>
  <path d="M52 166L224 224L170 148L52 166Z" fill="#D97706" fill-opacity="0.2"/>
  <path d="M170 148L224 224L224 40L170 148Z" fill="#FEF3C7" fill-opacity="0.4"/>

  <!-- Shine Overlay -->
  <path d="M224 40L278 148L396 166L310 250L330 368L224 312L118 368L138 250L52 166L170 148L224 40Z" 
        fill="url(#goldShine)" style="mix-blend-mode: overlay"/>
</svg>
