<svg width="512" height="512" viewBox="0 0 512 512" fill="none" xmlns="http://www.w3.org/2000/svg">
  <defs>
    <linearGradient id="cupidGradV3" x1="80" y1="80" x2="432" y2="432" gradientUnits="userSpaceOnUse">
      <stop offset="0%" stop-color="#FDF2F8"/>
      <stop offset="30%" stop-color="#F9A8D4"/>
      <stop offset="70%" stop-color="#EC4899"/>
      <stop offset="100%" stop-color="#9D174D"/>
    </linearGradient>
    <linearGradient id="arrowGradV3" x1="0" y1="256" x2="512" y2="256" gradientUnits="userSpaceOnUse">
      <stop offset="0%" stop-color="#FDE68A"/>
      <stop offset="50%" stop-color="#F59E0B"/>
      <stop offset="100%" stop-color="#B45309"/>
    </linearGradient>
    <filter id="glowCupidV3" x="-20%" y="-20%" width="140%" height="140%">
      <feGaussianBlur stdDeviation="12" result="blur"/>
      <feComposite in="SourceGraphic" in2="blur" operator="over"/>
    </filter>
  </defs>
  
  <!-- Heart forming O with arrow through it -->
  <g filter="url(#glowCupidV3)">
    <!-- Main heart outline -->
    <path d="M256 400
             C256 400 72 260 72 156
             C72 88 120 48 180 48
             C224 48 256 88 256 88
             C256 88 288 48 332 48
             C392 48 440 88 440 156
             C440 260 256 400 256 400Z" 
          stroke="url(#cupidGradV3)" stroke-width="32" fill="none"/>
  </g>
  
  <!-- Cupid's Arrow -->
  <g filter="url(#glowCupidV3)">
    <!-- Arrow shaft -->
    <line x1="48" y1="464" x2="464" y2="48" stroke="url(#arrowGradV3)" stroke-width="12" stroke-linecap="round"/>
    
    <!-- Arrowhead -->
    <path d="M464 48L420 60L452 92Z" fill="#F59E0B"/>
    <path d="M464 48L440 88" stroke="#FDE68A" stroke-width="4"/>
    
    <!-- Arrow fletching -->
    <path d="M48 464L80 452L68 420Z" fill="#DC2626"/>
    <path d="M48 464L88 440" stroke="#F87171" stroke-width="4"/>
    <path d="M48 464L60 424L92 436Z" fill="#B91C1C"/>
  </g>
  
  <!-- Highlight on heart -->
  <path d="M256 88
           C256 88 224 48 180 48
           C120 48 72 88 72 156
           C72 180 78 204 90 228
           Q140 160 200 120
           Q230 100 256 88Z" 
        fill="white" fill-opacity="0.3"/>
  
  <!-- Sparkles around -->
  <path d="M100 100L108 80L128 72L108 64L100 44L92 64L72 72L92 80L100 100Z" fill="white" opacity="0.8"/>
  <path d="M420 380L428 360L448 352L428 344L420 324L412 344L392 352L412 360L420 380Z" fill="white" opacity="0.8"/>
  <path d="M480 200L486 184L502 178L486 172L480 156L474 172L458 178L474 184L480 200Z" fill="#FDA4AF" opacity="0.7"/>
  <path d="M32 312L38 296L54 290L38 284L32 268L26 284L10 290L26 296L32 312Z" fill="#FDA4AF" opacity="0.7"/>
  
  <!-- Small floating hearts -->
  <path d="M380 140C380 140 368 128 368 118C368 112 374 106 380 106C383 106 386 110 384 114C382 110 385 106 388 106C394 106 400 112 400 118C400 128 388 140 388 140Z" fill="#FECDD3" opacity="0.9"/>
  <path d="M140 360C140 360 128 348 128 338C128 332 134 326 140 326C143 326 146 330 144 334C142 330 145 326 148 326C154 326 160 332 160 338C160 348 148 360 148 360Z" fill="#FECDD3" opacity="0.9"/>
</svg>
