<svg width="256" height="256" viewBox="0 0 256 256" fill="none" xmlns="http://www.w3.org/2000/svg">
  <defs>
    <linearGradient id="sadGradHD" x1="128" y1="20" x2="128" y2="236" gradientUnits="userSpaceOnUse">
      <stop offset="0%" stop-color="#E5E7EB"/>
      <stop offset="100%" stop-color="#9CA3AF"/>
    </linearGradient>
    <filter id="sadShadowHD" x="-20%" y="-20%" width="140%" height="140%">
      <feDropShadow dx="0" dy="8" stdDeviation="12" flood-color="#4B5563" flood-opacity="0.2"/>
    </filter>
  </defs>
  
  <g filter="url(#sadShadowHD)">
    <circle cx="128" cy="128" r="100" fill="url(#sadGradHD)"/>
    <circle cx="128" cy="128" r="100" stroke="#6B7280" stroke-width="8"/>
    
    <!-- Eyes -->
    <path d="M80 100L100 100" stroke="#4B5563" stroke-width="12" stroke-linecap="round"/>
    <path d="M156 100L176 100" stroke="#4B5563" stroke-width="12" stroke-linecap="round"/>
    
    <!-- Mouth -->
    <path d="M176 160C176 160 156 140 128 140C100 140 80 160 80 160" 
          stroke="#4B5563" stroke-width="12" stroke-linecap="round"/>
          
    <!-- Tear -->
    <path d="M180 110C180 110 170 125 170 135C170 142 175 145 180 145C185 145 190 142 190 135C190 125 180 110 180 110Z" 
          fill="#60A5FA" opacity="0.8"/>
  </g>
</svg>
