<svg width="512" height="512" viewBox="0 0 512 512" fill="none" xmlns="http://www.w3.org/2000/svg">
  <defs>
    <linearGradient id="heartGradV1" x1="256" y1="64" x2="256" y2="448" gradientUnits="userSpaceOnUse">
      <stop offset="0%" stop-color="#FDA4AF"/>
      <stop offset="50%" stop-color="#E11D48"/>
      <stop offset="100%" stop-color="#9F1239"/>
    </linearGradient>
    <filter id="glowHeartV1" x="-30%" y="-30%" width="160%" height="160%">
      <feGaussianBlur stdDeviation="16" result="blur"/>
      <feComposite in="SourceGraphic" in2="blur" operator="over"/>
    </filter>
    <filter id="innerShadowV1">
      <feOffset dx="2" dy="4"/>
      <feGaussianBlur stdDeviation="4"/>
      <feComposite operator="out" in="SourceGraphic"/>
      <feColorMatrix type="matrix" values="0 0 0 0 0.5 0 0 0 0 0 0 0 0 0 0.1 0 0 0 0.4 0"/>
      <feBlend mode="normal" in2="SourceGraphic"/>
    </filter>
  </defs>
  
  <!-- Main Heart - Classic Shape -->
  <g filter="url(#glowHeartV1)">
    <path d="M256 420
             C256 420 80 280 80 180
             C80 120 120 64 180 64
             C220 64 248 96 256 112
             C264 96 292 64 332 64
             C392 64 432 120 432 180
             C432 280 256 420 256 420Z" 
          fill="url(#heartGradV1)"/>
  </g>
  
  <!-- Highlight -->
  <ellipse cx="160" cy="140" rx="32" ry="24" fill="white" fill-opacity="0.4"/>
  
  <!-- Inner detail lines -->
  <path d="M180 180C200 160 220 160 240 170" stroke="#FCE7F3" stroke-width="6" stroke-linecap="round" opacity="0.6"/>
  <path d="M280 170C300 160 320 160 340 180" stroke="#FCE7F3" stroke-width="6" stroke-linecap="round" opacity="0.6"/>
  
  <!-- Bottom sparkle -->
  <path d="M256 380L264 360L284 356L264 352L256 332L248 352L228 356L248 360L256 380Z" fill="white" fill-opacity="0.8"/>
</svg>
