<svg width="512" height="512" viewBox="0 0 512 512" fill="none" xmlns="http://www.w3.org/2000/svg">
  <defs>
    <linearGradient id="starGradV3" x1="60" y1="60" x2="452" y2="452" gradientUnits="userSpaceOnUse">
      <stop offset="0%" stop-color="#ECFEFF"/>
      <stop offset="25%" stop-color="#A5F3FC"/>
      <stop offset="50%" stop-color="#22D3EE"/>
      <stop offset="75%" stop-color="#0891B2"/>
      <stop offset="100%" stop-color="#155E75"/>
    </linearGradient>
    <linearGradient id="shimmerV3" x1="0" y1="0" x2="512" y2="512" gradientUnits="userSpaceOnUse">
      <stop offset="0%" stop-color="white" stop-opacity="0.8"/>
      <stop offset="50%" stop-color="white" stop-opacity="0"/>
      <stop offset="100%" stop-color="white" stop-opacity="0.4"/>
    </linearGradient>
    <filter id="glowStarV3" x="-35%" y="-35%" width="170%" height="170%">
      <feGaussianBlur stdDeviation="20" result="blur"/>
      <feComposite in="SourceGraphic" in2="blur" operator="over"/>
    </filter>
  </defs>
  
  <!-- Multi-layer glow -->
  <circle cx="256" cy="256" r="240" fill="#22D3EE" fill-opacity="0.08"/>
  <circle cx="256" cy="256" r="200" fill="#06B6D4" fill-opacity="0.1"/>
  <circle cx="256" cy="256" r="160" fill="#0891B2" fill-opacity="0.1"/>
  
  <!-- 8-pointed star / starburst outline -->
  <g filter="url(#glowStarV3)">
    <!-- Primary 4 points -->
    <path d="M256 24L280 200L432 256L280 312L256 488L232 312L80 256L232 200L256 24Z" 
          stroke="url(#starGradV3)" stroke-width="28" stroke-linejoin="round" fill="none"/>
    
    <!-- Secondary 4 points (45° rotated, shorter) -->
    <path d="M120 120L200 220L256 256L312 220L392 120L292 200L256 256L220 200L120 120Z
             M120 392L200 292L256 256L220 292L120 392Z
             M392 392L292 292L256 256L312 292L392 392Z"
          stroke="url(#starGradV3)" stroke-width="20" stroke-linejoin="round" fill="none" opacity="0.8"/>
  </g>
  
  <!-- Cross highlights -->
  <line x1="256" y1="60" x2="256" y2="120" stroke="white" stroke-width="6" stroke-linecap="round" opacity="0.6"/>
  <line x1="392" y1="256" x2="452" y2="256" stroke="white" stroke-width="6" stroke-linecap="round" opacity="0.5"/>
  
  <!-- Inner ring -->
  <circle cx="256" cy="256" r="80" stroke="url(#starGradV3)" stroke-width="8" fill="none" opacity="0.5"/>
  <circle cx="256" cy="256" r="80" stroke="white" stroke-width="2" stroke-dasharray="8 12" fill="none" opacity="0.4"/>
  
  <!-- Center starburst -->
  <circle cx="256" cy="256" r="32" fill="white" fill-opacity="0.6" filter="url(#glowStarV3)"/>
  <path d="M256 232L264 248L280 256L264 264L256 280L248 264L232 256L248 248L256 232Z" fill="white"/>
  
  <!-- Point tips -->
  <circle cx="256" cy="40" r="10" fill="white" fill-opacity="0.8"/>
  <circle cx="416" cy="256" r="8" fill="white" fill-opacity="0.6"/>
  <circle cx="256" cy="472" r="8" fill="#A5F3FC" fill-opacity="0.7"/>
  <circle cx="96" cy="256" r="8" fill="white" fill-opacity="0.6"/>
  
  <!-- Corner sparkles -->
  <path d="M136" y1="136L144 120L160 114L144 108L136 92L128 108L112 114L128 120L136 136Z" fill="white" opacity="0.7"/>
  <path d="M376 136L384 120L400 114L384 108L376 92L368 108L352 114L368 120L376 136Z" fill="#ECFEFF" opacity="0.6"/>
  <path d="M136 376L144 360L160 354L144 348L136 332L128 348L112 354L128 360L136 376Z" fill="#A5F3FC" opacity="0.5"/>
  <path d="M376 376L384 360L400 354L384 348L376 332L368 348L352 354L368 360L376 376Z" fill="white" opacity="0.6"/>
  
  <!-- Twinkling dots -->
  <circle cx="180" cy="100" r="3" fill="white"/>
  <circle cx="332" cy="100" r="2" fill="#ECFEFF"/>
  <circle cx="412" cy="180" r="3" fill="white" opacity="0.8"/>
  <circle cx="100" cy="332" r="2" fill="#A5F3FC"/>
</svg>
