<svg width="512" height="512" viewBox="0 0 512 512" fill="none" xmlns="http://www.w3.org/2000/svg">
  <defs>
    <linearGradient id="starGradV1" x1="100" y1="80" x2="412" y2="432" gradientUnits="userSpaceOnUse">
      <stop offset="0%" stop-color="#FEF9C3"/>
      <stop offset="40%" stop-color="#FDE68A"/>
      <stop offset="70%" stop-color="#FBBF24"/>
      <stop offset="100%" stop-color="#D97706"/>
    </linearGradient>
    <filter id="glowStarV1" x="-30%" y="-30%" width="160%" height="160%">
      <feGaussianBlur stdDeviation="16" result="blur"/>
      <feComposite in="SourceGraphic" in2="blur" operator="over"/>
    </filter>
  </defs>
  
  <!-- Outer glow -->
  <circle cx="256" cy="256" r="200" fill="#FDE68A" fill-opacity="0.15" filter="url(#glowStarV1)"/>
  
  <!-- 5-pointed star outline (O shape) -->
  <g filter="url(#glowStarV1)">
    <path d="M256 40L296 180L440 200L336 296L368 440L256 360L144 440L176 296L72 200L216 180L256 40Z" 
          stroke="url(#starGradV1)" stroke-width="36" stroke-linejoin="round" fill="none"/>
  </g>
  
  <!-- Inner star highlight -->
  <path d="M256 40L296 180L440 200L336 296L368 440L256 360L144 440L176 296L72 200L216 180L256 40Z" 
        stroke="#FEF9C3" stroke-width="6" stroke-linejoin="round" fill="none" opacity="0.6"/>
  
  <!-- Star point highlights -->
  <circle cx="256" cy="60" r="12" fill="white" fill-opacity="0.7"/>
  <circle cx="420" cy="200" r="10" fill="white" fill-opacity="0.5"/>
  <circle cx="350" cy="420" r="10" fill="white" fill-opacity="0.4"/>
  <circle cx="160" cy="420" r="10" fill="white" fill-opacity="0.4"/>
  <circle cx="92" cy="200" r="10" fill="white" fill-opacity="0.5"/>
  
  <!-- Center sparkle -->
  <path d="M256 220L264 200L284 192L264 184L256 164L248 184L228 192L248 200L256 220Z" fill="white"/>
  <circle cx="256" cy="280" r="6" fill="#FEF9C3"/>
  
  <!-- Tiny stars around -->
  <path d="M120 80L124 68L136 64L124 60L120 48L116 60L104 64L116 68L120 80Z" fill="white" opacity="0.8"/>
  <path d="M400 100L404 88L416 84L404 80L400 68L396 80L384 84L396 88L400 100Z" fill="#FDE68A" opacity="0.7"/>
  <path d="M80 380L84 368L96 364L84 360L80 348L76 360L64 364L76 368L80 380Z" fill="white" opacity="0.6"/>
</svg>
