<svg width="512" height="512" viewBox="0 0 512 512" fill="none" xmlns="http://www.w3.org/2000/svg">
  <defs>
    <linearGradient id="starGradV2" x1="80" y1="80" x2="432" y2="432" gradientUnits="userSpaceOnUse">
      <stop offset="0%" stop-color="#F5F3FF"/>
      <stop offset="30%" stop-color="#E9D5FF"/>
      <stop offset="60%" stop-color="#C084FC"/>
      <stop offset="100%" stop-color="#9333EA"/>
    </linearGradient>
    <filter id="glowStarV2" x="-30%" y="-30%" width="160%" height="160%">
      <feGaussianBlur stdDeviation="18" result="blur"/>
      <feComposite in="SourceGraphic" in2="blur" operator="over"/>
    </filter>
  </defs>
  
  <!-- Mystical aura -->
  <circle cx="256" cy="256" r="220" fill="#C084FC" fill-opacity="0.1" filter="url(#glowStarV2)"/>
  
  <!-- 4-pointed mystical star outline -->
  <g filter="url(#glowStarV2)">
    <path d="M256 32L296 200L464 256L296 312L256 480L216 312L48 256L216 200L256 32Z" 
          stroke="url(#starGradV2)" stroke-width="32" stroke-linejoin="round" fill="none"/>
  </g>
  
  <!-- Inner highlight ring -->
  <path d="M256 32L296 200L464 256L296 312L256 480L216 312L48 256L216 200L256 32Z" 
        stroke="white" stroke-width="4" stroke-linejoin="round" stroke-dasharray="20 30" fill="none" opacity="0.5"/>
  
  <!-- Diamond center -->
  <path d="M256 200L280 256L256 312L232 256Z" fill="#E9D5FF" fill-opacity="0.5"/>
  <path d="M200 256L256 232L312 256L256 280Z" fill="#E9D5FF" fill-opacity="0.5"/>
  
  <!-- Point highlights -->
  <ellipse cx="256" cy="52" rx="16" ry="20" fill="white" fill-opacity="0.7"/>
  <ellipse cx="444" cy="256" rx="20" ry="16" fill="white" fill-opacity="0.5"/>
  <ellipse cx="256" cy="460" rx="16" ry="20" fill="white" fill-opacity="0.4"/>
  <ellipse cx="68" cy="256" rx="20" ry="16" fill="white" fill-opacity="0.5"/>
  
  <!-- Center glow -->
  <circle cx="256" cy="256" r="24" fill="white" fill-opacity="0.6" filter="url(#glowStarV2)"/>
  <circle cx="256" cy="256" r="12" fill="white"/>
  
  <!-- Magical particles -->
  <circle cx="160" cy="160" r="6" fill="#E9D5FF"/>
  <circle cx="352" cy="160" r="5" fill="#F5F3FF"/>
  <circle cx="352" cy="352" r="6" fill="#E9D5FF"/>
  <circle cx="160" cy="352" r="5" fill="#F5F3FF"/>
  
  <!-- Tiny sparkles -->
  <path d="M120 100L124 88L136 84L124 80L120 68L116 80L104 84L116 88L120 100Z" fill="white"/>
  <path d="M400 420L404 408L416 404L404 400L400 388L396 400L384 404L396 408L400 420Z" fill="#E9D5FF"/>
</svg>
