<svg width="512" height="512" viewBox="0 0 512 512" fill="none" xmlns="http://www.w3.org/2000/svg">
  <defs>
    <linearGradient id="vineGradV2" x1="80" y1="80" x2="432" y2="432" gradientUnits="userSpaceOnUse">
      <stop offset="0%" stop-color="#BBF7D0"/>
      <stop offset="40%" stop-color="#4ADE80"/>
      <stop offset="70%" stop-color="#22C55E"/>
      <stop offset="100%" stop-color="#166534"/>
    </linearGradient>
    <linearGradient id="flowerGradV2" x1="0" y1="0" x2="1" y2="1">
      <stop offset="0%" stop-color="#FECDD3"/>
      <stop offset="50%" stop-color="#FB7185"/>
      <stop offset="100%" stop-color="#E11D48"/>
    </linearGradient>
    <filter id="glowVineV2" x="-20%" y="-20%" width="140%" height="140%">
      <feGaussianBlur stdDeviation="8" result="blur"/>
      <feComposite in="SourceGraphic" in2="blur" operator="over"/>
    </filter>
  </defs>
  
  <!-- Main vine ring -->
  <g filter="url(#glowVineV2)">
    <circle cx="256" cy="256" r="180" stroke="url(#vineGradV2)" stroke-width="20" fill="none"/>
    <!-- Twisted effect -->
    <circle cx="256" cy="256" r="190" stroke="#86EFAC" stroke-width="6" stroke-dasharray="30 50" fill="none" opacity="0.5"/>
    <circle cx="256" cy="256" r="170" stroke="#15803D" stroke-width="6" stroke-dasharray="20 60" fill="none" opacity="0.4"/>
  </g>
  
  <!-- Vine leaves on ring -->
  <g fill="url(#vineGradV2)">
    <!-- Top -->
    <path d="M256 56C256 56 220 56 200 30C220 10 256 20 256 20C256 20 292 10 312 30C292 56 256 56 256 56Z"/>
    
    <!-- Right -->
    <path d="M456 256C456 256 456 220 482 200C502 220 492 256 492 256C492 256 502 292 482 312C456 292 456 256 456 256Z"/>
    
    <!-- Bottom -->
    <path d="M256 456C256 456 292 456 312 482C292 502 256 492 256 492C256 492 220 502 200 482C220 456 256 456 256 456Z"/>
    
    <!-- Left -->
    <path d="M56 256C56 256 56 292 30 312C10 292 20 256 20 256C20 256 10 220 30 200C56 220 56 256 56 256Z"/>
  </g>
  
  <!-- Small flowers -->
  <g filter="url(#glowVineV2)">
    <!-- Flower 1 -->
    <circle cx="340" cy="100" r="20" fill="url(#flowerGradV2)"/>
    <circle cx="340" cy="100" r="8" fill="#FEF3C7"/>
    <circle cx="334" cy="94" r="3" fill="white" fill-opacity="0.6"/>
    
    <!-- Flower 2 -->
    <circle cx="412" cy="340" r="20" fill="url(#flowerGradV2)"/>
    <circle cx="412" cy="340" r="8" fill="#FEF3C7"/>
    <circle cx="406" cy="334" r="3" fill="white" fill-opacity="0.6"/>
    
    <!-- Flower 3 -->
    <circle cx="172" cy="412" r="20" fill="url(#flowerGradV2)"/>
    <circle cx="172" cy="412" r="8" fill="#FEF3C7"/>
    <circle cx="166" cy="406" r="3" fill="white" fill-opacity="0.6"/>
    
    <!-- Flower 4 -->
    <circle cx="100" cy="172" r="20" fill="url(#flowerGradV2)"/>
    <circle cx="100" cy="172" r="8" fill="#FEF3C7"/>
    <circle cx="94" cy="166" r="3" fill="white" fill-opacity="0.6"/>
  </g>
  
  <!-- Tiny leaves -->
  <path d="M380 140C380 140 392 128 400 140C392 152 380 140 380 140Z" fill="#4ADE80"/>
  <path d="M372 412C372 412 384 400 392 412C384 424 372 412 372 412Z" fill="#4ADE80"/>
  <path d="M132 372C132 372 120 384 112 372C120 360 132 372 132 372Z" fill="#4ADE80"/>
  <path d="M140 132C140 132 128 120 140 112C152 120 140 132 140 132Z" fill="#4ADE80"/>
  
  <!-- Sparkles -->
  <path d="M256 180L260 168L272 164L260 160L256 148L252 160L240 164L252 168L256 180Z" fill="white" opacity="0.7"/>
</svg>
