<svg width="512" height="512" viewBox="0 0 512 512" fill="none" xmlns="http://www.w3.org/2000/svg">
  <defs>
    <linearGradient id="cloverGradV1" x1="100" y1="100" x2="412" y2="412" gradientUnits="userSpaceOnUse">
      <stop offset="0%" stop-color="#BBF7D0"/>
      <stop offset="40%" stop-color="#4ADE80"/>
      <stop offset="70%" stop-color="#22C55E"/>
      <stop offset="100%" stop-color="#15803D"/>
    </linearGradient>
    <linearGradient id="stemGradV1" x1="256" y1="320" x2="256" y2="480" gradientUnits="userSpaceOnUse">
      <stop offset="0%" stop-color="#22C55E"/>
      <stop offset="100%" stop-color="#14532D"/>
    </linearGradient>
    <filter id="glowCloverV1" x="-20%" y="-20%" width="140%" height="140%">
      <feGaussianBlur stdDeviation="10" result="blur"/>
      <feComposite in="SourceGraphic" in2="blur" operator="over"/>
    </filter>
  </defs>
  
  <!-- Stem -->
  <path d="M256 300C256 300 240 380 220 440C200 480 180 500 180 500" 
        stroke="url(#stemGradV1)" stroke-width="16" stroke-linecap="round" fill="none"/>
  
  <!-- Four Leaf Clover -->
  <g filter="url(#glowCloverV1)">
    <!-- Top Left Leaf -->
    <path d="M256 256C256 256 180 256 140 200C100 140 120 80 180 80C240 80 256 160 256 256Z" 
          fill="url(#cloverGradV1)"/>
    
    <!-- Top Right Leaf -->
    <path d="M256 256C256 256 256 180 312 140C372 100 432 120 432 180C432 240 352 256 256 256Z" 
          fill="url(#cloverGradV1)"/>
    
    <!-- Bottom Right Leaf -->
    <path d="M256 256C256 256 332 256 372 312C412 372 392 432 332 432C272 432 256 352 256 256Z" 
          fill="url(#cloverGradV1)"/>
    
    <!-- Bottom Left Leaf -->
    <path d="M256 256C256 256 256 332 200 372C140 412 80 392 80 332C80 272 160 256 256 256Z" 
          fill="url(#cloverGradV1)"/>
  </g>
  
  <!-- Leaf veins -->
  <path d="M256 256L180 140" stroke="#DCFCE7" stroke-width="4" stroke-linecap="round" opacity="0.5"/>
  <path d="M256 256L372 180" stroke="#DCFCE7" stroke-width="4" stroke-linecap="round" opacity="0.5"/>
  <path d="M256 256L332 372" stroke="#DCFCE7" stroke-width="4" stroke-linecap="round" opacity="0.5"/>
  <path d="M256 256L140 332" stroke="#DCFCE7" stroke-width="4" stroke-linecap="round" opacity="0.5"/>
  
  <!-- Highlights -->
  <ellipse cx="180" cy="120" rx="24" ry="20" fill="white" fill-opacity="0.4"/>
  <ellipse cx="380" cy="180" rx="20" ry="16" fill="white" fill-opacity="0.3"/>
  <ellipse cx="320" cy="380" rx="16" ry="20" fill="white" fill-opacity="0.25"/>
  <ellipse cx="120" cy="320" rx="20" ry="16" fill="white" fill-opacity="0.3"/>
  
  <!-- Center detail -->
  <circle cx="256" cy="256" r="24" fill="#16A34A"/>
  <circle cx="256" cy="256" r="16" fill="#BBF7D0"/>
  
  <!-- Dew drops -->
  <circle cx="160" cy="180" r="8" fill="white" fill-opacity="0.7"/>
  <circle cx="352" cy="160" r="6" fill="white" fill-opacity="0.6"/>
  <circle cx="356" cy="340" r="7" fill="white" fill-opacity="0.5"/>
</svg>
