<svg width="448" height="448" viewBox="0 0 448 448" fill="none" xmlns="http://www.w3.org/2000/svg">
  <defs>
    <linearGradient id="natureGradientUHD" x1="224" y1="40" x2="224" y2="408" gradientUnits="userSpaceOnUse">
      <stop offset="0%" stop-color="#4ADE80"/>
      <stop offset="50%" stop-color="#22C55E"/>
      <stop offset="100%" stop-color="#15803D"/>
    </linearGradient>
    <filter id="natureGlowUHD" x="-20%" y="-20%" width="140%" height="140%">
      <feGaussianBlur stdDeviation="12" result="blur"/>
      <feComposite in="SourceGraphic" in2="blur" operator="over"/>
    </filter>
    <linearGradient id="veinGradientUHD" x1="224" y1="224" x2="224" y2="60" gradientUnits="userSpaceOnUse">
      <stop offset="0%" stop-color="#86EFAC" stop-opacity="0.7"/>
      <stop offset="100%" stop-color="#86EFAC" stop-opacity="0"/>
    </linearGradient>
    <radialGradient id="dewDrop" cx="0" cy="0" r="1" gradientUnits="userSpaceOnUse" gradientTransform="translate(180 100) rotate(90) scale(12)">
      <stop stop-color="white" stop-opacity="0.9"/>
      <stop offset="1" stop-color="white" stop-opacity="0"/>
    </radialGradient>
  </defs>
  
  <!-- Stem with texture -->
  <path d="M224 224C224 224 224 360 240 400" stroke="#14532D" stroke-width="16" stroke-linecap="round"/>
  <path d="M224 224C224 224 224 360 240 400" stroke="#4ADE80" stroke-width="4" stroke-linecap="round" stroke-dasharray="20 30" opacity="0.5"/>

  <!-- Top Leaf -->
  <g>
    <path d="M224 224C224 224 160 160 160 120C160 80 192 48 224 64C256 48 288 80 288 120C288 160 224 224 224 224Z" 
          fill="url(#natureGradientUHD)" stroke="#14532D" stroke-width="3"/>
    <!-- Veins -->
    <path d="M224 224L224 80" stroke="url(#veinGradientUHD)" stroke-width="6" stroke-linecap="round"/>
    <path d="M224 180L190 150" stroke="url(#veinGradientUHD)" stroke-width="3" stroke-linecap="round" opacity="0.6"/>
    <path d="M224 180L258 150" stroke="url(#veinGradientUHD)" stroke-width="3" stroke-linecap="round" opacity="0.6"/>
    <path d="M224 140L200 110" stroke="url(#veinGradientUHD)" stroke-width="2" stroke-linecap="round" opacity="0.5"/>
    <path d="M224 140L248 110" stroke="url(#veinGradientUHD)" stroke-width="2" stroke-linecap="round" opacity="0.5"/>
  </g>
  
  <!-- Right Leaf -->
  <g transform="rotate(90 224 224)">
    <path d="M224 224C224 224 160 160 160 120C160 80 192 48 224 64C256 48 288 80 288 120C288 160 224 224 224 224Z" 
          fill="url(#natureGradientUHD)" stroke="#14532D" stroke-width="3"/>
    <path d="M224 224L224 80" stroke="url(#veinGradientUHD)" stroke-width="6" stroke-linecap="round"/>
    <path d="M224 180L190 150" stroke="url(#veinGradientUHD)" stroke-width="3" stroke-linecap="round" opacity="0.6"/>
    <path d="M224 180L258 150" stroke="url(#veinGradientUHD)" stroke-width="3" stroke-linecap="round" opacity="0.6"/>
  </g>

  <!-- Bottom Leaf -->
  <g transform="rotate(180 224 224)">
    <path d="M224 224C224 224 160 160 160 120C160 80 192 48 224 64C256 48 288 80 288 120C288 160 224 224 224 224Z" 
          fill="url(#natureGradientUHD)" stroke="#14532D" stroke-width="3"/>
    <path d="M224 224L224 80" stroke="url(#veinGradientUHD)" stroke-width="6" stroke-linecap="round"/>
    <path d="M224 180L190 150" stroke="url(#veinGradientUHD)" stroke-width="3" stroke-linecap="round" opacity="0.6"/>
    <path d="M224 180L258 150" stroke="url(#veinGradientUHD)" stroke-width="3" stroke-linecap="round" opacity="0.6"/>
  </g>

  <!-- Left Leaf -->
  <g transform="rotate(270 224 224)">
    <path d="M224 224C224 224 160 160 160 120C160 80 192 48 224 64C256 48 288 80 288 120C288 160 224 224 224 224Z" 
          fill="url(#natureGradientUHD)" stroke="#14532D" stroke-width="3"/>
    <path d="M224 224L224 80" stroke="url(#veinGradientUHD)" stroke-width="6" stroke-linecap="round"/>
    <path d="M224 180L190 150" stroke="url(#veinGradientUHD)" stroke-width="3" stroke-linecap="round" opacity="0.6"/>
    <path d="M224 180L258 150" stroke="url(#veinGradientUHD)" stroke-width="3" stroke-linecap="round" opacity="0.6"/>
  </g>
  
  <!-- Dew Drops -->
  <circle cx="180" cy="100" r="12" fill="url(#dewDrop)"/>
  <circle cx="300" cy="280" r="8" fill="url(#dewDrop)" opacity="0.8"/>
  
  <!-- Center Highlight -->
  <circle cx="224" cy="224" r="16" fill="#DCFCE7" fill-opacity="0.5" filter="url(#natureGlowUHD)"/>
</svg>
