<svg width="640" height="640" viewBox="0 0 640 640" fill="none" xmlns="http://www.w3.org/2000/svg">
  <defs>
    <linearGradient id="natureXGradientUHD" x1="320" y1="80" x2="320" y2="560" gradientUnits="userSpaceOnUse">
      <stop offset="0%" stop-color="#86EFAC"/>
      <stop offset="50%" stop-color="#22C55E"/>
      <stop offset="100%" stop-color="#15803D"/>
    </linearGradient>
    <filter id="glowXNatureUHD" x="-20%" y="-20%" width="140%" height="140%">
      <feGaussianBlur stdDeviation="20" result="blur"/>
      <feComposite in="SourceGraphic" in2="blur" operator="over"/>
    </filter>
    <linearGradient id="leafShine" x1="0" y1="0" x2="1" y2="1">
       <stop offset="0%" stop-color="white" stop-opacity="0.4"/>
       <stop offset="100%" stop-color="white" stop-opacity="0"/>
    </linearGradient>
  </defs>
  
  <g filter="url(#glowXNatureUHD)">
    <!-- Top Left Leaf -->
    <path d="M320 320L200 200C160 160 160 120 200 80C240 40 280 40 320 80L320 320Z" fill="url(#natureXGradientUHD)"/>
    <path d="M320 320L200 200" stroke="#DCFCE7" stroke-width="8" stroke-opacity="0.3"/>
    <path d="M220 120C230 110 250 110 260 120" stroke="#14532D" stroke-width="4" stroke-opacity="0.2"/>
    
    <!-- Top Right Leaf -->
    <path d="M320 320L440 200C480 160 520 160 560 200C600 240 600 280 560 320L320 320Z" fill="url(#natureXGradientUHD)"/>
    <path d="M320 320L440 200" stroke="#DCFCE7" stroke-width="8" stroke-opacity="0.3"/>
    <path d="M520 220C510 230 510 250 520 260" stroke="#14532D" stroke-width="4" stroke-opacity="0.2"/>

    <!-- Bottom Right Leaf -->
    <path d="M320 320L440 440C480 480 480 520 440 560C400 600 360 600 320 560L320 320Z" fill="url(#natureXGradientUHD)"/>
    <path d="M320 320L440 440" stroke="#DCFCE7" stroke-width="8" stroke-opacity="0.3"/>
    <path d="M420 520C410 510 390 510 380 520" stroke="#14532D" stroke-width="4" stroke-opacity="0.2"/>

    <!-- Bottom Left Leaf -->
    <path d="M320 320L200 440C160 480 120 480 80 440C40 400 40 360 80 320L320 320Z" fill="url(#natureXGradientUHD)"/>
    <path d="M320 320L200 440" stroke="#DCFCE7" stroke-width="8" stroke-opacity="0.3"/>
    <path d="M120 420C130 410 130 390 120 380" stroke="#14532D" stroke-width="4" stroke-opacity="0.2"/>
  </g>
  
  <!-- Center Detail -->
  <circle cx="320" cy="320" r="24" fill="#DCFCE7"/>
  <circle cx="320" cy="320" r="16" fill="#4ADE80"/>
</svg>
